<?xml version="1.0" standalone="no"?>
<!DOCTYPE svg PUBLIC "-//W3C//DTD SVG 20010904//EN"
 "http://www.w3.org/TR/2001/REC-SVG-20010904/DTD/svg10.dtd">
<svg version="1.0" xmlns="http://www.w3.org/2000/svg"
 width="1366.000000pt" height="768.000000pt" viewBox="0 0 1366.000000 768.000000"
 preserveAspectRatio="xMidYMid meet">

<g transform="translate(0.000000,768.000000) scale(0.100000,-0.100000)"
fill="#000000" stroke="none">
<path d="M6818 4363 c-4 -14 -17 -22 -41 -27 -37 -7 -87 -40 -76 -50 3 -4 23
1 45 10 50 21 155 16 182 -10 15 -13 22 -14 28 -5 11 18 -31 48 -76 55 -25 4
-41 13 -47 27 l-10 21 -5 -21z"/>
<path d="M6746 4277 c-19 -14 -32 -87 -16 -87 6 0 10 11 10 25 0 18 4 23 15
19 8 -4 15 -14 15 -23 0 -14 2 -14 10 -1 7 12 12 12 22 2 13 -13 48 -17 48 -4
0 4 16 12 34 18 33 10 35 9 39 -15 3 -17 5 -11 6 16 1 33 -3 45 -18 53 -28 15
-144 13 -165 -3z"/>
<path d="M6761 4180 c-39 -9 -73 -40 -53 -47 6 -3 12 -19 12 -36 l0 -32 105 0
105 0 0 25 c0 15 5 31 11 37 21 21 1 41 -51 52 -57 12 -80 13 -129 1z"/>
<path d="M6762 4038 c-35 -4 -75 -14 -88 -23 -29 -19 -31 -51 -5 -60 23 -7 35
-35 21 -49 -13 -13 -13 -46 1 -46 7 0 10 -20 7 -55 -1 -30 -2 -55 -1 -55 0 0
13 20 27 44 36 62 79 80 173 73 60 -4 75 -3 80 9 3 9 1 20 -6 27 -18 18 -13
37 14 49 39 18 32 46 -17 67 -52 23 -122 29 -206 19z"/>
<path d="M6951 3827 c-2 -29 -38 -92 -70 -125 -17 -16 -60 -47 -96 -67 -88
-49 -111 -86 -119 -190 -4 -44 -9 -100 -12 -125 l-6 -45 30 51 c37 61 86 106
145 132 52 23 123 84 141 121 10 21 10 50 1 146 -7 66 -13 112 -14 102z"/>
</g>
</svg>
