<?xml version="1.0" standalone="no"?>
<!DOCTYPE svg PUBLIC "-//W3C//DTD SVG 20010904//EN"
 "http://www.w3.org/TR/2001/REC-SVG-20010904/DTD/svg10.dtd">
<svg version="1.0" xmlns="http://www.w3.org/2000/svg"
 width="375.000000pt" height="375.000000pt" viewBox="0 0 375.000000 375.000000"
 preserveAspectRatio="xMidYMid meet">

<g transform="translate(0.000000,375.000000) scale(0.100000,-0.100000)"
fill="#000000" stroke="none">
<path d="M1871 2539 c-1 -37 -21 -56 -65 -62 -21 -3 -49 -13 -62 -22 -28 -18
-34 -51 -6 -40 100 43 200 45 253 6 35 -26 39 -26 39 -1 0 26 -39 50 -90 57
-44 6 -50 11 -61 57 -6 29 -7 29 -8 5z"/>
<path d="M1790 2418 c-34 -13 -35 -15 -36 -68 -1 -30 1 -40 3 -22 3 25 8 32
20 28 8 -3 17 -6 19 -6 2 0 4 -8 5 -17 0 -11 3 -13 6 -5 6 14 33 16 33 2 0 -5
14 -10 30 -10 17 0 30 5 30 10 0 14 27 12 33 -2 4 -10 6 -10 6 -1 1 7 10 17
21 23 17 9 21 6 29 -22 9 -31 9 -31 10 19 1 44 -2 54 -21 64 -32 17 -147 21
-188 7z"/>
<path d="M1800 2291 c-72 -15 -102 -48 -64 -69 11 -6 15 -19 12 -38 l-4 -30
128 1 128 0 0 29 c0 16 7 34 16 40 22 16 8 43 -29 56 -42 15 -143 21 -187 11z"/>
</g>
</svg>
